# xmcd
#
# Track frame offsets: 
#        150
#        13244
#        33290
#        50622
#        69943
#        89899
#        103280
#        122832
#        134041
#        153964
#
# Disc length: 2420 seconds
#
# Revision: 0
# Processed by: cddbd v1.5.2PL0 Copyright (c) Steve Scherf et al.
# Submitted via: ExactAudioCopy v0.99pb3
#
DISCID=9009720a
DTITLE=ASS - My Get Up and Go Just Got Up and Went
DYEAR=2008
DGENRE=Acoustic
TTITLE0=I've Been Here
TTITLE1=It's Really a Good Reason
TTITLE2=Escape From NY (Main Title)
TTITLE3=And Pass it to Each Other
TTITLE4=Wheels and Wings
TTITLE5=Back to the Old Ways
TTITLE6=You Think You're Ugly, But You're Not
TTITLE7=Cool Water
TTITLE8=It Only Takes Minutes
TTITLE9=Vertical Spar
EXTD=
EXTT0=
EXTT1=
EXTT2=
EXTT3=
EXTT4=
EXTT5=
EXTT6=
EXTT7=
EXTT8=
EXTT9=
PLAYORDER=
